<svg xmlns="http://www.w3.org/2000/svg" fill="darkgray" width="32" height="32" viewBox="0 0 512 512">
  <path d="m141 364c0 0 60-60 60-60c0 0 0 150 0 150c0 0-142-9-142-9c0 0 45-44 45-44c-39-41-59-91-58-148c1-57 21-107 62-148c34-34 75-53 122-59c0 0 2 52 2 52c-34 6-63 21-88 45c-30 30-45 67-46 109c0 43 14 80 43 112m170-307c0 0 142 9 142 9c0 0-45 44-45 44c39 41 59 91 58 148c-1 57-21 107-62 148c-32 33-73 53-122 60c0 0-1-53-1-53c33-6 62-21 87-45c30-30 45-67 46-109c0-43-14-80-43-112c0 0-59 60-59 60c0 0-1-150-1-150"/>
</svg>